<?xml version="1.0" encoding="UTF-8"?>
<svg id="_图层_1" data-name="图层 1" xmlns="http://www.w3.org/2000/svg" viewBox="0 0 384 384">
  <defs>
    <style>
      .cls-1 {
        fill: #213b4e;
      }

      .cls-2 {
        fill: #000915;
      }

      .cls-3 {
        fill: #0b2534;
      }

      .cls-4 {
        fill: #193549;
      }

      .cls-5 {
        fill: #082636;
      }

      .cls-6 {
        fill: #09202e;
      }

      .cls-7 {
        fill: #122d3b;
      }

      .cls-8 {
        fill: #1c384b;
      }

      .cls-9 {
        fill: #203b4e;
      }

      .cls-10 {
        fill: #1b3545;
      }

      .cls-11 {
        fill: #091f2d;
      }

      .cls-12 {
        fill: #1c3648;
      }

      .cls-13 {
        fill: #0f2737;
      }

      .cls-14 {
        fill: #0a2534;
      }

      .cls-15 {
        fill: #0c2632;
      }

      .cls-16 {
        fill: #213c4f;
      }

      .cls-17 {
        fill: #06202d;
      }

      .cls-18 {
        fill: #1d374b;
      }

      .cls-19 {
        fill: #092331;
      }

      .cls-20 {
        fill: #1c3548;
      }

      .cls-21 {
        fill: #051f2d;
      }

      .cls-22 {
        fill: #fdfdfd;
      }

      .cls-23 {
        fill: #11222f;
      }

      .cls-24 {
        fill: #1b3446;
      }

      .cls-25 {
        fill: #1d384b;
      }

      .cls-26 {
        fill: #1c3448;
      }

      .cls-27 {
        fill: #163144;
      }

      .cls-28 {
        fill: #041e2a;
      }

      .cls-29 {
        fill: #1d374a;
      }

      .cls-30 {
        fill: #092231;
      }

      .cls-31 {
        fill: #0b2633;
      }

      .cls-32 {
        fill: #132637;
      }

      .cls-33 {
        fill: #061f2e;
      }

      .cls-34 {
        fill: #213c50;
      }

      .cls-35 {
        fill: #0a1c2a;
      }

      .cls-36 {
        fill: #072133;
      }

      .cls-37 {
        fill: #081e2d;
      }

      .cls-38 {
        fill: #062233;
      }

      .cls-39 {
        fill: #051f2e;
      }

      .cls-40 {
        fill: #244055;
      }

      .cls-41 {
        fill: #fefefe;
      }
    </style>
  </defs>
  <path class="cls-22" d="M191.81,383.96c-63.36,0-126.73,0-190.09,.04-1.4,0-1.72-.32-1.72-1.72C.04,255.43,.04,128.57,0,1.72,0,.32,.32,0,1.72,0c126.85,.04,253.71,.04,380.56,0,1.4,0,1.72,.32,1.72,1.72-.04,126.85-.04,253.71,0,380.56,0,1.4-.32,1.72-1.72,1.72-63.49-.04-126.98-.04-190.47-.04Z"/>
  <path class="cls-12" d="M85.13,192.2c0-.13,0-.27,0-.4,.37-2.04-.13-4.11,.27-6.15,.03-.82,.06-1.64,.09-2.46,.36-.88-.08-1.85,.29-2.73,.37-6.1,1.6-12.04,3.46-17.85,.74,.02,.79,.65,.72,1.07-.28,1.63,.57,3.18,.21,4.82-.13,.61-.07,1.43,.57,1.65,.79,.27,1.05-.6,1.22-1.12,.92-2.85,2.9-5.38,2.71-8.59-.01-.19,0-.42,.13-.53,1.76-1.49,2.02-3.83,3.23-5.61,.81-1.2,.97-2.54,1.48-3.8,.96-2.38,2.53-4.48,3.38-6.86,1.28-3.57,3.88-6.1,6.24-8.84,.95-1.1,1.07-2.51,1.5-3.8,.46-1.35,.85-2.63,2.64-2.68,.6-.01,.98-.5,1.26-1.02,1.57-2.93,3.76-5.42,5.76-8.04,.12-.14,.25-.25,.4-.36,.26-.18,.74-.22,.79-.45,.44-2.03,2.48-2.74,3.49-4.33,1.23-1.93,3.32-3.13,4.84-4.84,1.66-1.87,3.92-2.72,6.08-3.81,2.37-1.2,4.76-2.45,6.58-4.5,.15-.09,.3-.16,.46-.22,1.21-.71,2.4-1.44,3.57-2.21,.13-.1,.28-.18,.43-.24,.55-.14,1.07-.35,1.45-.81,.28-.24,.6-.41,.95-.51,2.66-1.01,5.43-1.63,8.08-2.76,4.67-1.99,9.64-3.23,14.79-3.41,.77-.03,1.45-.33,2.16-.51,3.52-.89,7.07-1.06,10.69-1.2,4.73-.19,9.45-.76,14.16-.02,2.92,.46,5.81,.12,8.7,.21,3.5,.1,6.62,1.97,9.98,2.82,3.19,.81,6.22,2.1,9.49,2.72,2.22,.42,4.25,1.71,6.26,2.83,.17,.06,.33,.13,.49,.22,.48,.34,.99,.62,1.58,.74,.32,.1,.6,.27,.86,.46,.43,.4,.95,.55,1.52,.59,.26,.04,.5,.12,.71,.27,.14,1.05,.82,1.51,1.79,1.73,.41,.09,.85,.29,1.15,.59,2.2,2.23,5.21,3.25,7.59,5.2,.15,.09,.28,.18,.42,.28,.81,.58,1.77,.91,2.57,1.51,1.04,1.04,2.22,1.87,3.5,2.59,.82,.73,1.68,1.42,2.47,2.19,.6,.59,1.3,1.24,.55,2.2-.78,.44-1.46,.16-2.07-.33-4.07-3.28-8.44-6.15-12.66-9.23-2.65-1.93-5.8-3.11-8.84-4.38-2.08-.87-4.02-1.99-6.03-3-3.61-1.81-7.42-3.08-11.33-3.77-3.93-.7-7.61-2.59-11.62-2.55-4.17,.05-8.15-1.23-12.4-.96-3.79,.24-7.6,.87-11.49,.53-2.05-.18-4.28,.58-6.4,1.04-3.77,.83-7.54,1.62-11.3,2.47-3.8,.86-7.25,2.65-10.84,4.06-6.31,2.47-12.02,6.09-17.53,9.91-7.27,5.03-14.37,10.36-19.32,17.96-.85,1.3-1.97,2.43-3.05,3.54-2.69,2.74-4.49,6.07-6.68,9.15-2.65,3.72-4.58,7.71-6.25,11.85-1.58,3.91-2.83,7.96-3.98,12.05-.89,3.17-1.87,6.31-2.58,9.52-1.06,4.79-2.27,9.57-1.81,14.55,.45,4.83,.62,9.69,1.5,14.48,.22,1.21,.59,2.4,.75,3.62,.09,.16,.15,.33,.21,.51,.15,.61,.22,1.25,.61,1.78,.85,2.87,1.35,5.83,2.1,8.72,.99,3.88,2.52,7.57,3.95,11.29,.29,.75,.68,1.48,.74,2.3-.12,.74-.55,.69-1.06,.4-1.17-1.03-1.31-2.63-2.13-3.85-.17-.26-.26-.59-.46-.81-2.3-2.61-2.9-5.99-4.18-9.06-.4-.95-.23-1.98-.44-2.94-.22-1.01-.55-2-1.29-2.76-.63,.34-.59,.8-.47,1.22,.82,2.9,1.12,5.86,1.24,8.85,.02,.37,.05,.82,.26,1.08,1.68,2.12,1.83,4.85,2.96,7.18,.81,1.67,1.68,3.28,1.81,5.25,.08,1.26,.69,2.52,1.6,3.53,2.11,2.32,3.7,5.01,5.2,7.72,.95,1.71,2.38,3.01,3.29,4.71,.21,.38,.39,.78,.49,1.2,.09,.38-.04,.83,.36,1.1,.28,.14,.56,.29,.81,.49,.94,.62,1.75,1.35,2.34,2.32,.1,.13,.19,.27,.28,.41,.3,.6,.82,.98,1.36,1.33,.55,.43,.89,1.02,1.24,1.6,2.24,2.84,4.83,5.3,7.68,7.51,.15,.09,.28,.19,.4,.31,.66,1.33,1.83,2.09,3.09,2.75,.14,.09,.27,.2,.38,.32,.38,.57,.95,.89,1.55,1.17,.15,.08,.29,.17,.43,.27,1.07,1.06,2.28,1.95,3.54,2.77,.41,.41,.94,.62,1.45,.87,.99,.74,1.78,1.75,3,2.17,.54,.29,1.09,.53,1.63,.8,1.72,1.31,3.81,1.99,5.51,3.45,1.31,1.12,3.49,.9,4.91,2.13,1.99,1.73,4.44,2.47,6.86,3.27,.18,.06,.36,.15,.53,.24,4.47,1.69,9.2,2.39,13.8,3.57,1.71,.44,3.58,.19,5.35,.6,.2,.03,.4,.08,.6,.14,3.5,.86,7.16,.72,10.63,1.88,1.6,.54,3.34-.18,4.99-.36,2-.22,3.98,0,5.94-.12,2.63-.15,5.28-.55,7.89-1.06,.86-.17,1.71-.36,2.57-.46,2.18-.99,4.49-1.44,6.83-1.84,5.27-.9,10.01-3.3,14.89-5.31,2.12-.87,4.43-1.19,6.39-2.56,1.17-.82,2.21-1.82,3.48-2.51,2.12-1.16,4.1-2.55,6.41-3.42,2.92-1.1,5.13-3.38,7.58-5.26,.55-.42,1.05-.92,1.72-1.09,1.07-.27,1.93-.84,2.7-1.6,.49-.49,1.07-.9,1.76-1.03,1.23-.23,1.83-1.02,2.66-1.93,1.1-1.2,2.34-2.5,3.79-3.39,1.89-1.17,3.4-2.72,4.8-4.38,1.04-1.23,1.98-2.5,3.16-3.64,1.24-1.2,1.99-2.98,2.66-4.61,.45-1.1,.84-2.17,1.58-3.13,1.57-2.06,1.72-4.65,2.44-7.02,.31-1.02,.54-1.62,1.72-1.21,.82,.29,1.39-.12,1.58-.87,.34-1.41,1.5-2.84-.09-4.27-.45-.41-.18-.9,.37-1.19,.47-.24,.84-.59,.61-1.19-.09-.25-.31-.39-.59-.34-.59,.1-.77,.59-.93,1.06-.89,2.55-2.27,4.86-3.45,7.27-.3,.62-.66,1.25-1.4,1.42-.5,.12-.6-.3-.66-.69,.89-2.47,2.12-4.78,3.26-7.13,4.32-8.98,6.67-18.51,8.08-28.31,.89-6.2,.9-12.44,.72-18.66-.11-3.67-.66-7.32-1.33-10.94-.15-.8-.37-1.58-.33-2.4,.64-3.02-.15-5.93-.99-8.74-.92-3.09-2.4-6-2.8-9.27-.21-1.71-1.5-2.99-2.12-4.54-2.4-6.03-6.31-11.09-10.03-16.32-2.79-3.92-5.91-7.54-9.04-11.15-1.2-1.39-2.35-2.9-3.93-3.92-.81-.52-1.18-1.25-1.12-2.2,1.04-.66,1.92-.25,2.64,.51,.7,.75,1.53,1.21,2.47,1.6,1.55,.64,2.52,1.94,3.51,3.24,1.65,2.17,2.84,4.66,4.72,6.67,.19,.2,.35,.41,.51,.63,3.2,4.11,6.41,8.22,9.88,12.11,.61,.69,1.06,1.42,.87,2.35-.25,1.28,.51,2.17,.93,3.26,.88,2.26,3.01,3.41,4.12,5.4,.24,.43,.7,.86,.55,1.35-1.26,4.17,1.79,7.41,2.37,11.17,.06,.36,.32,.68,.56,.96,.43,.51,.88,1.36,1.59,1.04,.76-.35,.08-1.09-.06-1.64-.12-.5-.1-.99-.02-1.48,.1-.63,.15-1.35-.26-1.8-1.16-1.27-1.53-2.51-.78-4.2,.37-.84-.69-1.51-1.3-2.11-1.73-1.71-1.93-3.94-2.22-6.16-.36-2.73-1.25-5.29-2.65-7.67-.69-1.18-1.37-2.38-2.03-3.57-.44-.8-.39-.82,.19-1.52,4.64,7.18,8.03,14.95,10.7,23.03,1.32,3.99,2.55,8.02,3.03,12.23-.25,1.99,.12,3.99,.57,5.86,.84,3.52,.55,7.05,.73,10.58,.25,4.74-.15,9.46-.66,14.16-.42,3.83-.96,7.6-2.06,11.35-1.17,3.98-1.73,8.16-3.32,12.03-2.8,6.79-5.46,13.62-9.25,19.98-4.04,6.78-8.88,12.92-14.02,18.84-2.94,3.39-6.21,6.52-9.8,9.21-6.2,4.64-12.31,9.42-19.21,13.03-4.37,2.29-8.94,4.03-13.61,5.57-2.84,.93-5.56,2.19-8.5,2.8-4.73,.98-9.31,2.59-14.26,2.63-3.47,.03-6.93,.7-10.43,.7-4.99,0-9.97-.28-14.9-.89-1.9-.23-3.89-.6-5.72-1.4-.35-.15-.69-.28-1.07-.32-5.43-.55-10.62-1.99-15.68-4.03-3.45-1.39-7-2.6-10.29-4.26-4.09-2.07-8.2-4.18-11.85-7.07-2.38-1.88-5.13-3.26-7.57-5.12-2.83-2.16-5.55-4.43-8.08-6.93-2.92-2.87-5.63-5.94-8.29-9.04-2.09-2.45-4.23-4.9-5.85-7.72-.29-.5-.73-.85-1.14-1.22-.65-.59-1.29-1.2-1.67-2-4.09-8.59-8.43-17.07-12.07-25.88-.36-.87-.51-1.79-.75-2.7-1.53-5.9-2.77-11.86-3.47-17.91-.31-2.64-.46-5.33-.55-8-.21-.53,.04-1.12-.22-1.63Z"/>
  <path class="cls-34" d="M255.49,112.03c-1.34-.59-2.6-1.3-3.37-2.62-.74-.74-1.71-1.07-2.62-1.5h0c-3.08-2.39-6.2-4.7-9.64-6.56-.59-.32-.49-1.19-1.23-1.31-.25,0-.5,0-.75,0-.48-.29-1.08-.34-1.5-.75-.25-.12-.5-.25-.75-.37-.4-.44-.99-.52-1.5-.75-1.78-1.28-3.93-1.86-5.72-3.11-.53-.37-1.14-.49-1.78-.44-1.49,.12-2.83-.32-4.05-1.14-.54-.36-1.11-.57-1.75-.58-2.16-.05-4.07-.97-6.04-1.7-3.66-1.37-7.36-2.4-11.31-1.55-.37,.08-.72,.15-1.09,0-2.85-1.1-5.84-1.1-8.82-1.1-1.93,0-3.86,.02-5.78-.31-1.27-.22-2.55-.39-3.79,.43-.74,.49-1.74-.1-2.57,.12-2.68,.71-5.52,.49-8.16,1.59-1.13,.48-2.49,.67-3.78,.65-2.53-.05-4.86,.94-7.29,1.38-1.51,.28-3.09,.97-4.43,1.66-2.79,1.45-5.88,2-8.67,3.35-.25,.13-.5,.25-.75,.38-.37,.51-1.04,.42-1.5,.75h0c-1.18,.97-2.96,1.09-3.75,2.62h-.19s-.19,0-.19,0c-.17-.12-.35-.11-.5,.02-2.7,2.39-6.14,3.58-9.09,5.56-1.93,1.3-3.96,2.44-5.29,4.49-.79,1.22-2.29,1.65-3.44,2.49-1.39,1.02-2.39,2.15-2.6,3.87-.1,.77-.55,1.22-1.18,1.56-1.25,1.21-2.69,2.23-3.76,3.63-.56,.73-1.33,.84-2.17,.72,.09,.83,0,1.73-.73,2.15-2.56,1.5-4.03,4.26-6.64,5.68-.39,.21-.81,.51-.87,.93-.31,2.13-2.25,3.82-1.66,6.2,.17,.69-.28,1.17-.85,1.53-.47,.29-1.07,.45-1.27,1.04-.39,1.14-1.06,1.19-2.18,.97-1.82-.36-1.72-1.34-1.26-2.64,.14-.25,.28-.5,.42-.75,1.65-1.6,2.69-3.59,3.61-5.66,.17-.24,.34-.48,.5-.72,.71-.25,.89-.87,1.07-1.49,.52-.74,1.05-1.47,1.57-2.21,1.44-1.33,2.6-2.89,3.61-4.56,.18-.45,.45-.83,.88-1.07,2.48-2.15,4.52-4.7,6.69-7.13,.26-.25,.52-.51,.79-.76,1.02-.46,1.71-1.27,2.28-2.21,.36-.55,.83-.98,1.42-1.27,1.2-.08,1.65-1.2,2.44-1.82,1.48-1.18,3.11-2.21,4.39-3.65,2.24-1.51,4.48-3.02,6.71-4.53,.95-.2,1.63-.81,2.29-1.46,2.38-1.57,4.82-3.02,7.47-4.09,.45,.09,.81-.02,1.02-.46,1.2-.79,2.46-1.42,3.85-1.79,.83,.02,1.56-.2,2.12-.85,.87-.48,1.76-.88,2.74-1.06,1.19-.12,2.33-.36,3.27-1.18,.22-.3,.53-.31,.86-.3,.54,.08,1.06,.09,1.42-.43,.22-.27,.52-.31,.84-.29,1-.15,2.04-.15,2.88-.86,.74-.38,1.52-.63,2.37-.65,1.15,.13,2.16-.45,3.26-.58,.25-.03-.03,.1,.18-.02,.17-.1-.11-.11-.11-.21,.46-.37,1-.34,1.54-.32,2.66-.02,5.23-.76,7.85-1.11,5.68-.74,11.37-.95,17.09-.71,1.3,.05,2.59,.19,3.89-.04,.79,0,1.6-.09,2.35,.27-.5,.39-1,.18-1.5,.2,1.08,.02,2.17,.13,3.26-.07,8.74,.78,17.2,2.84,25.35,6,21.89,8.49,39.49,22.44,52.78,41.82,.24,.35,.41,.76,.61,1.14,.06,.49,.39,.92,.27,1.44-1.27,1.93-2.74,1.88-4.43,.44-1.83-1.56-3-3.58-4.43-5.41-.67-.86-1.72-1.2-2.33-2.07-.12-.12-.25-.25-.37-.38-2.48-4.13-4.94-8.2-8.86-11.29-2.44-1.92-5.26-3.2-7.62-5.2Z"/>
  <path class="cls-39" d="M85.46,193.73c.66,2.34,.23,4.79,.73,7.15,.91,4.28,.89,8.73,2.33,12.93,.52,1.51,.66,3.15,1.02,4.71,1.36,5.78,4.32,10.9,6.7,16.26,1.07,2.4,1.74,5.08,3.26,7.15,1.6,2.17,2,4.93,3.71,6.87,3.12,3.55,5.58,7.59,8.76,11.09,4.58,5.04,9.02,10.27,14.55,14.28,4.89,3.54,9.9,6.96,15.11,10.05,3.56,2.11,7.31,3.9,11.13,5.37,5.24,2.02,10.44,4.27,16.02,5.29,1.08,.2,2.19,.27,3.28,.31,.89,.03,1.74,.02,2.39,.77,.31,.36,.75,.36,1.21,.21,.35-.11,.82-.29,1.07-.14,3.29,1.92,7.04,1.37,10.53,1.62,5.2,.39,10.49,.52,15.71-.46,2.19-.41,4.47,.06,6.68-.49,3.07-.77,6.14-1.56,9.25-2.17,3.03-.6,5.86-1.8,8.68-2.9,3.15-1.22,6.5-1.86,9.47-3.74,1.33-.85,3.06-1.35,4.55-2.16,4.41-2.4,8.56-5.18,12.66-8.07,.91-.64,1.83-1.23,2.29-2.34,.15-.37,.56-.8,.93-.88,3.59-.8,5.38-4.03,8.06-6.03,1.61-1.2,2.82-2.91,4.24-4.37,2.26-2.32,4.25-4.86,6.16-7.47,2.3-3.14,4.92-6.07,6.85-9.47,2.8-4.94,5.32-10,7.51-15.26,1.92-4.59,3.97-9.15,4.94-14,1.01-5.03,2.61-9.91,3.08-15.09,.69-7.55,.72-15.09,.54-22.63-.05-2.09-.62-4.24-.89-6.37-.09-.73-.39-1.46,.19-2.13,1.24,6.91,2.14,13.84,1.97,20.89-.76,31.78-12.64,58.51-36.21,79.95-14.83,13.49-32.16,22.09-51.85,25.62-23.82,4.27-46.64,.9-68.08-10.43-27.68-14.64-46.11-36.98-54.88-67.12-1.72-5.91-3.05-11.94-3.31-18.14-.35-.74,.05-1.57-.27-2.31-.04-.96-.09-1.91-.13-2.87-.13-1.16-.31-2.32,.09-3.46Z"/>
  <path class="cls-29" d="M99.24,139.35c.24,.13,.36,.32,.3,.61-.08,.4-.66,.9-.21,1.14,.72,.39,1.58,.56,2.41,.71,.27,.05,.53-.36,.43-.7-.12-.43,0-.9,.34-.96,2.05-.34,1.33-1.97,1.82-3.17,.93-2.28,.64-5.35,3.68-6.63,1.12-.47,1.87-1.77,2.82-2.66,.79-.74,1.33-1.68,2.53-2.05,.6-.18,1.69-1.11,.57-2.18-.21-.2-.46-.52-.09-.77,.16-.11,.54-.11,.68,.01,1.28,1.14,1.82,.01,2.5-.76,1.02-1.17,2.05-2.34,3.63-2.78-.84,2.09-2.65,3.5-3.79,5.4-.5,.83-1.24,1.54-1.63,2.46-.48,1.14-1.01,2.17-2.56,1.89-.71-.13-.96,.38-1.14,.96-.29,.95-.68,1.87-.93,2.83-.33,1.27-.8,2.26-1.97,3.16-1.17,.9-1.99,2.39-2.87,3.65-2.55,3.63-4.43,7.7-6.01,11.8-.92,2.38-2.11,4.61-3.13,6.91-.68,1.52-1.37,2.88-1.69,4.6-.42,2.23-1.59,4.34-2.55,6.45-.35,.77-.72,2.15-1.74,1.74-.9-.36-1.1-1.64-1.04-2.79,.1-1.87,0-3.74-.36-5.59,2.39-8.16,5.5-16.01,10.01-23.26Z"/>
  <path class="cls-29" d="M272.34,128.89c1.59,.3,2.42,1.46,3.32,2.67,1.2,1.6,2.65,3.08,3.86,4.61,1.43,1.8,2.26,.24,3.33,.25,.11,0,.23-.52,.35-.8,.25-.24,.51-.02,.76-.02,.15,.25,.3,.49,.45,.74-.2,1.83,1.36,2.88,1.96,4.37,.86,2.14,2.33,3.96,2.55,6.46,.17,2.01,.88,3.98,1.14,6.03,.13,.99,1.23,1.52,1.91,2.22,.91,.94,1.75,1.79,.59,3.15-.5,.58-.51,1.33,.31,1.72,.74,.35,.97,1.04,1.02,1.67,.12,1.49,.06,2.97,.51,4.45,.27,.91-.36,1.23-1.23,.78-1.77-.92-2.51-2.55-2.77-4.38-.17-1.16-1.02-2.09-1.14-3.07-.24-1.97-1.81-3.67-.82-5.97,.59-1.38-.87-2.69-1.99-3.52-.94-.7-1.85-1.19-1.81-2.55,0-.3-.31-.69-.59-.9-1.19-.92-1.5-2.12-1.07-3.48,.27-.88-.1-1.51-.66-1.98-2.5-2.08-3.89-5.05-6.04-7.38-1.47-1.59-2.95-3.11-3.92-5.06Z"/>
  <path class="cls-29" d="M200.42,85.12c-.52,.5-1.18,.31-1.78,.31-3.61,.02-7.22-.02-10.83,.02-5,.05-9.9,.89-14.79,1.83-.52,.1-1.09,.48-1.42-.3,5.61-1.48,11.35-1.9,17.11-2.15,3.91-.17,7.81-.06,11.71,.29Z"/>
  <path class="cls-29" d="M128.9,106.04c.12,.94-.72,1.11-1.24,1.55-1.37,1.16-2.74,2.32-4.1,3.48-.43,.37-.74,1.11-1.48,.44,2.09-2.05,4.35-3.9,6.82-5.47Z"/>
  <path class="cls-29" d="M117.59,115.75c.07,.1,.21,.26,.19,.28-2.26,2.27-4.11,4.94-6.58,7.01-.03,.03-.2-.1-.3-.15,2.03-2.57,4.23-4.97,6.69-7.13Z"/>
  <path class="cls-29" d="M103.27,132.95c.45,.94-.33,1.79-.68,2.29-.82,1.21-1.21,2.92-2.93,3.37,1.02-2,2.18-3.92,3.61-5.66Z"/>
  <path class="cls-29" d="M110.03,123.96c.42,.23,.23,.46,.03,.72-.94,1.22-1.89,2.44-2.81,3.67-.25,.33-.45,.62-.83,.17,1.01-1.67,2.22-3.19,3.61-4.56Z"/>
  <path class="cls-29" d="M170.05,87.29c.24,.02,.48,.04,.72,.07-1.36,.22-2.52,1.53-4.04,.74,1.07-.44,2.17-.74,3.33-.8Z"/>
  <path class="cls-29" d="M158.37,90.62c-.78,1.24-1.87,1.63-3.27,1.18,1.05-.5,2.09-1.02,3.27-1.18Z"/>
  <path class="cls-29" d="M85.4,185.65c-.1,2.05,.38,4.12-.27,6.15,0-2.05-.2-4.12,.27-6.15Z"/>
  <path class="cls-29" d="M164.36,88.75c-.28,.85-1.28,1.15-2.88,.86,.91-.44,1.86-.77,2.88-.86Z"/>
  <path class="cls-29" d="M120.66,112.78c-.19,1.32-.9,2.11-2.28,2.21,.63-.87,1.43-1.56,2.28-2.21Z"/>
  <path class="cls-29" d="M85.46,193.73c-.03,1.15-.06,2.31-.09,3.46-.49-1.64-.24-3.32-.25-4.99,.47,.43,.24,1.01,.34,1.53Z"/>
  <path class="cls-29" d="M137.9,100.05c-.43,1.01-1.13,1.6-2.29,1.46,.65-.66,1.41-1.15,2.29-1.46Z"/>
  <path class="cls-29" d="M152.36,92.86c-.4,1.05-1.08,1.39-2.12,.85,.64-.46,1.35-.72,2.12-.85Z"/>
  <path class="cls-29" d="M204.53,85.52c-1.1,.56-2.22,.23-3.36,.01,.53-.05,1.06-.09,1.59-.14,.59,.04,1.18,.09,1.77,.13Z"/>
  <path class="cls-29" d="M104.85,130.73c.21,.9,.02,1.53-1.07,1.49,.28-.55,.55-1.11,1.07-1.49Z"/>
  <path class="cls-29" d="M85.77,180.46c-.07,.91,.34,1.88-.29,2.73-.02-.92-.1-1.85,.29-2.73Z"/>
  <path class="cls-29" d="M160.65,89.89c-.25,.88-.73,.98-1.42,.43,.42-.33,.91-.41,1.42-.43Z"/>
  <path class="cls-12" d="M283.97,135.6c-.24,.44-.51,.06-.76,.02,.12-.38-.46-.79,.06-1.15,.39,.28,.63,.65,.7,1.13Z"/>
  <path class="cls-29" d="M85.5,200.06c.57,.71,.31,1.53,.27,2.31-.37-.74-.34-1.52-.27-2.31Z"/>
  <path class="cls-29" d="M146.39,95.5c0,.89-.43,.86-1.02,.46,.34-.15,.68-.31,1.02-.46Z"/>
  <path class="cls-41" d="M289.24,171.95c1.39,7.49,2.13,15.03,1.85,22.66-.59,15.74-4.38,30.61-11.95,44.47-.18,.32-.3,.68-.44,1.02-.22,.28-.03,.65-.19,.95-.44,1.09-1.16,2.01-1.74,3.02-.62,1.5-1.7,2.69-2.65,3.97-.5,.65-.93,1.35-1.47,1.98-.31,.38-.56,.81-.87,1.2-.49,.57-.87,1.22-1.37,1.78-.4,.49-.72,1.04-1.18,1.49-.27,.27-.55,.53-.78,.84-.18,.26-.34,.54-.52,.8-.77,.92-1.68,1.71-2.48,2.6-1,1.34-2.16,2.54-3.35,3.71-.78,.73-1.52,1.5-2.27,2.26-.58,.59-1.31,.97-1.9,1.54-.63,.57-1.2,1.19-1.81,1.77-.36,.32-.78,.55-1.16,.84-.3,.24-.57,.52-.86,.78-.3,.25-.63,.45-.95,.67-.31,.23-.58,.5-.85,.76-.17,.16-.35,.3-.54,.43-.32,.2-.64,.42-.92,.68-.17,.16-.36,.3-.55,.43-.41,.25-.78,.55-1.12,.89-1,.79-2.04,1.53-3.16,2.14-.44,.25-.86,.51-1.27,.8-1.22,.74-2.44,1.47-3.66,2.2-.63,.42-1.31,.75-1.98,1.1-.54,.26-1.07,.52-1.59,.81-.8,.39-1.6,.79-2.37,1.24-9.42,4.54-19.41,7.22-29.72,8.63-17.42,2.38-34.23-.23-50.36-6.96-10.66-4.45-20.29-10.65-28.87-18.46-7.21-6.56-13.26-14.04-18.44-22.25-.48-.96-1.1-1.85-1.56-2.82-.26-.55-.53-1.1-.89-1.59-1.21-2.21-2.54-4.36-2.94-6.91-2.45-5.71-4.67-11.49-5.95-17.6-.33-1.6-.45-3.26-1.17-4.77-.54-.55,.02-1.33-.4-1.91l.03,.03c-.66-1.08-.6-2.37-.73-3.51-1.99-17.28,.42-33.94,7.38-49.92,4.5-10.33,10.67-19.54,18.23-27.9,11.79-13.04,26.09-22.1,42.63-27.77,7.3-2.5,14.83-3.91,22.51-4.51,24.01-1.87,45.59,4.89,65.22,18.5,12.81,8.88,22.81,20.3,30.14,33.97,4.25,7.92,7.51,16.29,9.07,25.22,.04,.25,.06,.49-.07,.72Z"/>
  <path class="cls-1" d="M107.92,242.36c2.85,4,5.54,8.1,8.68,11.88,9.04,10.88,19.9,19.45,32.52,25.86,11.48,5.83,23.64,9.16,36.43,10.24,17.19,1.45,33.52-1.86,49.16-8.95,.16-.07,.37-.06,.55-.08,.94,.02,1.61-.5,2.22-1.12,.42-.42,.94-.66,1.51-.78,.81-.05,1.44-.4,1.89-1.08,1.25-.75,2.5-1.5,3.75-2.25,.54,0,.93-.22,1.11-.75,1.12-.77,2.24-1.54,3.36-2.31,.5-.12,.86-.41,1.11-.85,.13-.09,.26-.18,.39-.27,.49-.13,.86-.41,1.1-.87,.13-.09,.26-.18,.39-.27,.42-.04,.64-.33,.82-.66,.35-.27,.71-.54,1.06-.81,.41-.07,.63-.34,.79-.69,.35-.28,.71-.56,1.06-.84,.89-.33,1.41-1.05,1.91-1.79,.61-.53,1.22-1.06,1.83-1.58,.98-.48,1.73-1.2,2.19-2.2,1.16-1.22,2.32-2.43,3.49-3.65,.9-.84,1.99-1.51,2.48-2.73,.17-.22,.34-.45,.51-.67,.35-.16,.62-.4,.72-.78,.38-.49,.76-.98,1.15-1.47,.73-.45,1.28-1.03,1.46-1.9,.26-.36,.52-.73,.79-1.09,.77-.42,1.29-1.03,1.42-1.92l2.68-4.11c1.02-.75,1.51-1.82,1.86-2.99,.02-.31,.08-.6,.39-.77,.97,.26,1.06-.59,1.31-1.11,1.24-2.58,2.8-5.01,3.61-7.79,.21-.7,.53-1.26,1.42-1.18,.65,.06,1.07,.33,1.14,1,.08,.8-.07,1.5-.96,1.77-.23,.07-.68-.27-.59,.32,.04,.24,.2,.42,.53,.41,1.12-.04,1,.54,.72,1.33-.24,.69-.19,1.5-.47,2.16-.99,2.29-.51,3.01-3.33,1.82-1.1,3.17-1.09,6.77-3.7,9.36-.2,.2-.29,.54-.39,.82-.92,2.59-1.65,5.29-4.27,6.85-.39,.23-.57,.79-.85,1.2-1.65,2.41-3.5,4.61-6.16,5.97-.6,.31-.96,.83-1.34,1.43-.81,1.28-2.74,1.6-3.04,3.39-2.84-.25-4.05,2.98-6.7,3.16-.16,.01-.36,.17-.45,.32-1.14,1.88-3.57,2.11-4.87,3.93-.73,1.01-2.21,1.69-3.48,2.06-4.32,1.28-7.54,4.38-11.26,6.63-1.83,1.11-3.92,1.04-5.73,2.08-3.28,1.87-7.04,2.64-10.44,4.29-1.13,.54-2.52,.54-3.8,.77-2.36,.43-4.71,.88-6.92,1.84-1.64-.47-3.11,.53-4.69,.57-2.21,.06-4.4,.57-6.62,.54-2.91-.03-5.8,.29-8.68,.6-.31,.03-.63,.17-.92,.05-2.8-1.15-5.89-.65-8.72-1.59-.98-.32-1.97-.06-2.96-.17-5.07-.8-10.03-2.09-15.05-3.11-1.6-.33-3.2-.9-4.8-1.38h0c-1.77-1.11-3.86-1.6-5.43-3.17-.91-.92-2.47-.96-3.7-1.59-2.8-1.44-5.57-2.96-8.47-4.22-.59-.06-1.12-.26-1.5-.75-1.03-.7-2-1.5-3-2.25-.64,.03-1.21-.07-1.5-.75-1.07-1.22-2.39-2.13-3.75-3h0c-.55-.6-1.43-.78-1.87-1.5-1.23-.88-2.32-1.92-3.37-3-.12,0-.25,0-.37,0-2.46-2.78-5.22-5.26-7.87-7.87-.37-.5-.75-1-1.12-1.5-.61-.39-1.11-.89-1.5-1.5-.5-1.24-1.4-2.09-2.62-2.62-.25-.13-.5-.25-.75-.38-.4-.28,0-.83-.37-1.12-.13-.37-.25-.75-.38-1.12-.46-1.97-2.15-3.17-3.1-4.86-1.29-2.31-2.75-4.56-4.38-6.68-1.22-1.59-1.85-3.32-1.55-5.4,.21-1.43-.29-2.81-.81-4.18-.46-1.19-.86-2.53,.85-3.22,.94,1.09,1.07,2.58,1.87,3.74,1.4,1.18,1.82,2.92,2.6,4.46,.42,.82,.72,1.73,1.51,2.31,.4,.41,.66,.9,.76,1.47,.06,1.12,.74,1.89,1.51,2.61Z"/>
  <path class="cls-21" d="M289.24,171.95c-1.3-5.24-2.78-10.41-4.76-15.45-7.83-19.91-20.96-35.41-38.9-46.93-12.47-8.01-26.05-13.2-40.74-15.04-27.57-3.44-52.19,4-73.78,21.28-15.29,12.25-26.01,27.82-32.26,46.43-3.9,11.6-5.42,23.5-4.7,35.7,.18,3.07,.51,6.13,.77,9.2-1.43-.76-.83-2.32-1.06-3.4-1.04-4.82-1.01-9.79-1.66-14.67-.51-3.86,.55-7.48,1.01-11.21,.46-3.73,1.39-7.4,2.54-10.93,1.12-3.4,1.89-6.91,3.2-10.27,1.2-3.04,2.34-6.1,3.73-9.06,1.15-2.46,2.51-4.74,4.13-6.96,1-1.37,1.99-2.97,2.79-4.58,1.18-2.39,3.38-3.95,4.98-6.01,2.37-3.07,4.88-6.03,7.41-8.97,2.2-2.55,4.92-4.51,7.57-6.56,1.85-1.44,3.57-3.1,5.57-4.28,3.76-2.21,7.2-4.91,11.11-6.91,2.28-1.16,4.57-2.3,6.91-3.34,5.02-2.23,10-4.46,15.53-5.27,3.3-.48,6.51-1.71,9.82-2.11,1.74-.21,3.39-.89,5.32-.62,1.91,.27,3.99,.05,6.01-.24,3.16-.44,6.51-.93,9.55-.14,3.35,.87,6.74,.43,10.06,1.21,1.24,.29,2.58,.58,3.69,1,2.84,1.05,5.85,1.22,8.71,2.08,3.93,1.19,7.59,2.91,11.25,4.7,2.6,1.28,5.34,2.27,7.89,3.64,2.53,1.36,4.9,2.98,7.19,4.75,2.09,1.62,4.2,3.35,6.5,4.59,1.47,.79,2.19,2.85,4.25,2.55h0c.98,1.96,2.92,3.01,4.34,4.55,.85,.92,1.56,1.98,2.38,2.93,1.78,2.06,3.95,3.88,5.32,6.18,2.82,4.72,6.94,8.51,9.34,13.51,1.72,3.58,3.84,6.99,5.22,10.69,.65,1.75,.68,3.85,1.5,5.62,1.52,3.27,1.92,6.82,2.79,10.25,.16,.65,0,1.46-.5,2.07Z"/>
  <path class="cls-29" d="M149.11,97.42c.17-.36,.42-.61,.81-.72,2.64-.73,5.05-2.1,7.59-2.94,2.35-.78,4.7-1.72,7.12-2.39,3.59-1,7.58-.15,10.83-2.41,2.58,.68,4.97-1.3,7.56-.56,.28,.08,.79,.09,.9-.06,1.15-1.73,2.8-.71,4.07-.54,2.18,.29,4.34,.14,6.51,.28,2.74,.18,5.57-.15,8.13,1.25,.15,.08,.4,.17,.53,.1,2.21-1.16,4.54,.24,6.76-.34,.4-.1,.74-.03,1.07,.14,3.33,1.69,6.73,3.12,10.55,3.23,.56,.02,1.02,.37,1.47,.73,.99,.79,2.07,1.35,3.42,.91,.33-.11,.83-.11,1.09,.07,2.13,1.46,4.78,2.06,6.62,4-1.52-.02-2.58-1.13-3.89-1.66-4.65-1.87-9.58-2.78-14.29-4.4-2.43-.84-4.83-1.74-7.35-2.32-1.18-.27-2.22,.09-3.29,.16-4.57,.26-9.03-1.06-13.6-.81-2.47,.14-4.91,.75-7.35,.65-2.55-.11-5.03-.23-7.52,.49-4.05,1.18-8.33,1.13-12.41,2.13-3.36,.83-6.55,2.2-9.77,3.5-1.76,.71-3.69,1.02-5.54,1.51Z"/>
  <path class="cls-29" d="M99.67,227.77c-.9,.91-1.03,1.97-.44,3.06,.88,1.64,1.07,3.35,.84,5.17-.3,2.44,1.33,4.16,2.46,6.03,1.39,2.31,3.31,4.28,4.36,6.81,.14,.32,.42,.73,.72,.81,1.41,.4,1.32,1.38,1.05,2.46-2.38-2.45-3.99-5.4-5.63-8.35-.68-1.22-1.65-2.29-2.55-3.38-1.41-1.7-2.46-3.51-2.32-5.82,.04-.59-.28-1.08-.59-1.55-1.95-2.86-2.27-6.38-3.88-9.42-1.18-2.23-.62-5.03-1.08-7.56-.15-.81-.37-1.55-.65-2.31-.33-.9-.24-1.87,.74-2.22,1.04-.37,.85,.78,1.18,1.28,1.4,2.15,.74,4.85,2,7.09,1.07,1.89,.98,4.36,2.78,5.93,.62,.53,.63,1.34,1.01,1.97Z"/>
  <path class="cls-29" d="M120.64,119.15c.23-.37,.65-.73,.65-1.1,.04-3.46,2.77-4.62,5.11-6.13,.6-.39,1.32-.68,1.4-1.6,.08-.89,.96-1.13,1.56-1.47,2.13-1.19,4.16-2.63,6.13-3.98,2.09-1.43,4.72-1.9,6.45-3.85,.22-.25,.57-.17,.79,.14-.92,1.42-2.36,2.73-3.65,3.19-1.23,.44-2.06,1.4-3.31,1.74-3.18,.88-5.27,3.38-7.73,5.4-1.86,1.52-2.63,4.04-4.99,4.96-.48,.19-.53,.63-.56,1.08-.09,1.14-.76,1.63-1.87,1.6Z"/>
  <path class="cls-29" d="M176.08,292.95c1.26-.57,2.52-.56,3.77,.01,1.69,.77,3.53,.26,5.3,.67,4.87,1.12,9.76,.03,14.64-.24,2.66-.15,5.32-.11,7.87-1.04,.51-.19,.8,.19,1,.6-3.17,1.03-6.58,.72-9.76,1.77-.57,.19-1.32-.21-1.99-.26-2.62-.18-5.2,.23-7.78,.59-.94,.13-1.84,.25-2.75-.12-2.92-1.19-6.12-.79-9.12-1.59-.41-.11-.88,.03-1.19-.39Z"/>
  <path class="cls-29" d="M255.49,112.03c.56-.65,.88-.04,1.19,.27,.75,.77,1.64,1.24,2.61,1.72,2.55,1.25,4.52,3.3,6.66,5.14,2.45,2.11,3.29,5.31,5.67,7.4,.59,.52,.3,1.29,.36,1.96-2.2-1.72-3.1-4.4-4.8-6.51-1.14-1.41-2.12-2.9-3.94-3.46-.61-.19-1.24-.37-1.57-.93-.64-1.11-1.66-1.37-2.8-1.45,0,0,0,0,0,0,.13-1.28-.83-1.89-1.66-2.47-.67-.47-1.09-1.15-1.7-1.66Z"/>
  <path class="cls-29" d="M138.62,279.46c1.87,.24,3.45,1.29,5.13,2,2.32,.98,4.6,2.13,6.82,3.25,1.91,.97,4.12,1.99,5.66,3.74-3.03-.42-5.54-1.96-7.96-3.68-.57-.4-1.14-.74-1.84-.83-1.43-.19-2.55-.8-3.63-1.88-1.13-1.13-3-1.35-4.17-2.6Z"/>
  <path class="cls-29" d="M156.23,288.45c2.65-.13,5,1.22,7.58,1.48,3.13,.31,6,1.82,9.19,1.95,1.04,.04,2.06,.69,3.09,1.06-3.02-.51-6.07-.47-9.1-1.35-3.2-.93-6.52-1.56-9.77-2.4-.46-.12-.79-.32-.99-.74Z"/>
  <path class="cls-29" d="M238.63,100.04c1.19,0,1.8,1.03,2.66,1.57,2.41,1.5,4.68,3.23,6.97,4.91,.49,.36,.83,.92,1.23,1.38-2.18-1.63-4.94-2.35-6.83-4.41-.65-.71-1.47-1.19-2.34-1.45-1.08-.32-1.52-1.01-1.69-2Z"/>
  <path class="cls-29" d="M115.4,260.36c2.34,1.18,7.01,5.86,7.87,7.87-2.99-2.26-5.83-4.66-7.87-7.87Z"/>
  <path class="cls-29" d="M105.65,238.29c-1.03,.12-1.07-.91-1.35-1.4-.97-1.76-1.66-3.67-2.76-5.37,.28,.08,.6,.38,.8-.11l3.31,6.89Z"/>
  <path class="cls-29" d="M123.64,268.22c1.55,.52,2.51,1.7,3.37,3-1.56-.51-3.03-1.11-3.37-3Z"/>
  <path class="cls-29" d="M128.89,272.72c1.76,.36,3,1.37,3.75,3-1.47-.72-2.79-1.63-3.75-3Z"/>
  <path class="cls-29" d="M143.12,101.17c.39-2.1,2.38-1.91,3.75-2.62-.93,1.33-2.55,1.68-3.75,2.62Z"/>
  <path class="cls-29" d="M134.13,276.46c1.25,.41,2.29,1.11,3,2.25-1.4-.21-2.24-1.17-3-2.25Z"/>
  <path class="cls-29" d="M110.16,254.74c1.5,.25,2.48,1.02,2.62,2.62-.87-.87-1.75-1.75-2.62-2.62Z"/>
  <path class="cls-29" d="M249.5,107.91c1.16,0,2.04,.48,2.62,1.5-.93-.4-1.97-.6-2.62-1.5Z"/>
  <path class="cls-29" d="M127.01,271.22c.75,.34,1.64,.51,1.87,1.5-.86-.2-1.76-.36-1.87-1.5Z"/>
  <path class="cls-29" d="M234.14,98.17c.79-.33,1.33-.17,1.5,.75-.64,.03-1.21-.07-1.5-.75Z"/>
  <path class="cls-29" d="M112.78,257.36c.64,.36,1.14,.86,1.5,1.5-.89-.11-1.39-.61-1.5-1.5Z"/>
  <path class="cls-29" d="M146.86,98.55c.38-.49,.9-.69,1.5-.75-.12,1-.91,.68-1.5,.75Z"/>
  <path class="cls-29" d="M236.39,99.29c.59,.06,1.12,.26,1.5,.75-.64,.04-1.21-.07-1.5-.75Z"/>
  <path class="cls-21" d="M94.83,207.12c.77,.5,.34,1.26,.4,1.91-.71-.51-.36-1.25-.4-1.91Z"/>
  <path class="cls-29" d="M109.03,253.24c.44,.27,.36,.71,.37,1.12-1.37,.04,.04-.84-.37-1.12Z"/>
  <path class="cls-9" d="M165.9,112.51c-1.12-2.69-.34-4.92,2.28-6.11,3.2-1.45,6.68-1.95,10.1-2.53,16.37-2.79,32.38-1.15,47.64,5.29,22.96,9.69,39.78,25.83,49.55,48.98,.82,1.93,1.68,3.87,2.06,5.96-.32,1.17,.03,2.14,.87,2.97,.29,.19,.29,.47,.24,.77-.12,1.81,.45,3.5,.88,5.21,.37,1.47,.78,2.97-.22,4.3-.9,1.19-1.94,2.59-3.66,2.05-1.73-.54-3.29-1.57-3.72-3.58-.51-2.37-.64-4.81-1.41-7.14-.83-2.53-1.3-5.29-2.34-7.63-1.49-3.38-2.92-6.83-4.78-10.09-2.7-4.73-6.03-8.96-9.63-12.93-2.27-2.51-4.82-4.84-7.35-7.15-3.29-3-6.87-5.57-10.59-7.94-2.4-1.53-4.92-2.92-7.41-4.32-5.47-3.08-11.72-4.13-17.28-6.91-3.37,.23-6.39-1.61-9.65-1.75-5.41-.23-10.81-.12-16.23,.49-2.93,.33-5.9,.65-8.86,.83-.83,.05-1.61,.27-2.36,.55-2.65,1-5.39,.75-8.12,.69Z"/>
  <path class="cls-20" d="M123.28,177.96c2.4-7.91,12.55-10.68,19.15-5.15,1.06,.89,1.5,1,2.63,0,6.05-5.34,15.51-2.85,18.59,4.79,.69,8.93,.2,17.89,.75,26.82,.07,1.14-.34,2.24-1.41,2.63-1.56,.58-3.24,1.09-4.83-.07-1.33-.98-1.76-2.31-1.75-3.92,.03-6.43,.01-12.86,.01-19.29,0-.56,.03-1.13-.02-1.68-.24-2.65-1.66-4.28-3.93-4.51-2.13-.22-4.54,1.56-5.17,3.81-.26,.91-.25,1.85-.25,2.79,0,5.99,0,11.99,0,17.98,0,.75,.03,1.5-.07,2.24-.29,2.17-1.29,3.22-3.13,3.3-2.26,.1-3.83-1.03-4.3-3.06-.17-.74-.17-1.48-.17-2.23,0-5.99,0-11.99,0-17.98,0-.81,0-1.62-.1-2.43-.29-2.46-2.18-4.5-4.21-4.57-2.55-.08-4.8,1.85-5.17,4.49-.17,1.24,0,2.49,.08,3.73,.37,6.22,.92,12.45,.16,18.68-.35,2.85-1.14,3.53-4.03,3.38-2.2-.11-3.19-1.03-3.19-3.29,0-5.43-.14-10.84-.4-16.26-.16-3.43,.12-6.83,.76-10.21Z"/>
  <path class="cls-16" d="M107.42,202.98c3.12-.99,5.5,.61,6.17,4.22,1.18,6.45,3.07,12.67,5.93,18.58,7.55,15.61,18.99,27.52,34,36.16,12.56,7.23,26.04,10.75,40.47,10.65,7-.05,13.87-1.23,20.63-3.06,2.57-.7,4.06-.07,5.61,2.08-1.15,1.98-3.33,2.32-5.16,2.56-4.57,.61-9.03,1.85-13.6,2.28-2.77,.26-5.57,.45-8.34,.68-4.16,.34-8.2-.16-12.29-.51-1.38-.12-2.73-.16-4-.77-.39-.19-.82-.31-1.26-.33-6.99-.43-13.24-3.28-19.53-5.98-4.01-1.72-7.91-3.66-11.56-6.04-3.6-2.34-7.46-4.35-10.24-7.8-.89-1.11-2.17-1.88-3.33-2.7-1.37-.97-2.35-2.21-3.19-3.6-.71-1.18-1.44-2.34-2.56-3.18-.15-.11-.32-.22-.41-.38-2.99-5.21-6.81-9.88-9.58-15.28-1.85-3.62-3.03-7.48-4.65-11.16-.98-2.22-1.51-5.02-1.31-7.77,.14-2.04-.93-3.97-2.01-5.65-1.1-1.71-1.29-1.59,.22-2.98Z"/>
  <path class="cls-8" d="M105.33,172.72c1.61-8.3,4.54-16.12,8.75-23.44,7.61-13.22,17.58-24.23,30.5-32.47,1.15-.73,2.32-1.45,3.56-2.01,2.91-1.3,5.36,.02,6.14,3.23-2.07,3.54-5.52,5.55-8.83,7.58-3.57,2.2-6.81,4.7-9.66,7.77-3.81,4.1-7.72,8.09-10.91,12.75-3.04,4.45-5.39,9.23-7.53,14.14-1.3,2.97-2.43,5.96-3.3,9.1-.59,2.11-1.34,4.17-1.76,6.34-.22,1.15-1.15,1.73-2.17,2.13-.64,.25-1.33,.32-1.97,.58-1.9,.78-2.9,.1-2.91-2.02,0-1.22,.33-2.44,.1-3.68Z"/>
  <path class="cls-25" d="M231.57,264.86c.05-1.83,1.24-2.89,2.62-3.8,9.88-6.52,18.29-14.61,25.07-24.28,6.01-8.58,10.09-18.07,12.02-28.43,.18-.98,.36-1.97,.71-2.89,1.29-3.4,4.94-4,7.39-1.26,.16,2.71-.69,5.27-1.17,7.89-.64,3.44-1.96,6.67-2.9,10.02-.41,1.45-.97,2.81-1.64,4.16-2.46,4.96-4.85,9.94-7.99,14.55-1.16,1.71-2.28,3.4-3.73,4.84-2.26,2.25-3.74,5.17-6.18,7.24-3.35,2.84-5.98,6.42-9.82,8.82-2.33,1.46-4.75,2.94-6.88,4.78-2.7,2.32-6.41,1.42-7.5-1.63Z"/>
  <path class="cls-29" d="M202.73,182.46c2.62-11.04,15.49-16.79,25.35-11.31,1.94,1.08,3.6,2.44,3.75,4.92-1.1,1.41-2,3.1-4.26,2.72-.69-.11-1.3-.3-1.92-.65-6.37-3.54-10.7-2.27-14.08,3.1-1.56,2.48-2.12,5.65-.64,8.65,.67,1.6,1.37,3.14,2.6,4.46,2.58,2.78,5.74,3.51,9.33,2.98,.98,2.02,.77,4.12,.17,6.13-.4,1.35-2.11,2.08-3.74,1.84-6.34-.94-11.12-4.01-14.51-9.66-2.31-3.86-2.92-7.68-2.09-11.93,.08-.41,.3-.84,.05-1.27Z"/>
  <path class="cls-27" d="M107.42,202.98c.22,.93-1.02,.85-1.05,1.77,.93,.11,1.51,.73,1.85,1.73,.48,1.43,.72,2.98,1.78,4.17,.1,.12,.17,.43,.09,.52-1.26,1.62,.19,3.03,.27,4.52,.22,4.57,2.51,8.45,4.16,12.44,1.88,4.53,4.57,8.81,7.5,12.82,1.04,1.42,2.76,2.37,2.83,4.41,3.52,2.61,4.8,7.34,9.13,9.31,1.4,.64,2.21,2.66,3.71,3.57,1.25,.76,1.86,2.68,3.83,2.2,.11-.03,.32,.17,.43,.3,2.09,2.38,5.07,3.36,7.62,5,2.74,1.77,5.75,2.72,8.59,4.14,4.41,2.21,9.11,3.87,13.96,4.74,5.69,1.02,11.39,2.47,17.2,2.15,6.06-.33,12.15-.31,18.13-1.94,2.17-.59,4.59-.89,6.95-1.04,2.1-.13,4.05-1.02,5.83-2.18,.19,.48,.61,.88,.49,1.46-.7,1.62-1.88,2.62-3.52,3.38-4.13,1.92-8.62,1.95-12.96,2.72-4.99,.88-10.06,.99-15.11,.78-9.9-.41-19.5-2.03-28.76-5.92-7.66-3.22-14.75-7.3-21.37-12.2-4.28-3.17-8.21-6.78-11.66-10.94-2.62-3.16-5.26-6.3-7.84-9.5-4.85-6.02-7.63-13.13-10.65-20.11-1.79-4.13-2.86-8.47-3.62-12.89-.18-1.04-.24-2.09,.06-3.13,.09-1.35,.93-1.99,2.14-2.27Z"/>
  <path class="cls-18" d="M237.94,159.24c.79-3.5,4.21-4.6,7.14-2.3,.53,1.17,.5,2.42,.51,3.67,.03,11.54-.11,23.07,0,34.61,.02,2.12-.05,4.24,.29,6.35,.19,1.18,0,2.37-.29,3.52-.5,2.01-1.99,3.11-3.94,2.92-2.06-.2-3.36-1.6-3.37-3.74-.02-7.48,.05-14.97-.03-22.45-.07-7.16,.21-14.32-.17-21.48-.02-.37,.04-.75-.14-1.1Z"/>
  <path class="cls-28" d="M165.9,112.51c.72-1.03,1.83-.4,2.64-.39,2.46,.01,4.71-.74,7.06-1.19,1.45-.27,3.08-.42,4.59-.58,4.02-.42,8.07-.8,12.09-.92,3.95-.12,7.95-.52,11.93,.58,1.99,.55,3.97,1.5,6.29,1.03,1.06-.21,2.36,.9,3.57,1.35,3.12,1.17,6.25,2.3,9.42,3.36,3.1,1.04,5.83,2.95,8.74,4.43,3.42,1.74,6.37,4.18,9.7,6.06,2.22,1.26,3.91,3.46,5.86,5.21,3.83,3.45,7.48,7.13,10.61,11.19,1.5,1.94,3.25,3.77,4.31,6.13,1.47,3.26,3.31,6.33,4.73,9.66,2.34,5.46,4.01,11.03,4.84,16.86,.31,2.14,1.86,2.9,3.3,3.66,1.35,.71,2.22-.66,3.09-1.53,1.26-1.27,1.05-2.82,.44-4.17-.78-1.73-.41-3.65-1.2-5.38-.23-.51,.47-.02,.74-.04,.99,2.64,1.45,5.41,1.84,8.17,.36,2.53-1.47,4.76-4.04,5.22-2.14,.38-4.31-1.14-4.82-3.71-.9-4.52-1.9-8.99-3.49-13.32-4.71-12.86-12.56-23.52-22.85-32.44-11.13-9.65-23.94-15.89-38.39-18.79-7.83-1.58-15.68-1.73-23.6-.72-4.02,.52-7.93,1.45-11.82,2.54-2.71,.76-4.22,.11-5.59-2.27Z"/>
  <path class="cls-37" d="M123.28,177.96c.44,.31,.38,.75,.28,1.18-1.19,5.55-.69,11.13-.35,16.72,.16,2.55,.03,5.12,.05,7.68,.02,3.32,2.19,4.81,5.22,3.55,1.13-.47,1-1.7,1.1-2.6,.67-6.47,.34-12.93-.29-19.39-.25-2.55-.21-5.06,2.02-6.96,1.63-1.39,3.49-1.72,5.39-1.04,1.86,.67,3.24,3.6,3.21,5.48-.11,6.92-.15,13.85-.12,20.77,0,1.59,.6,3.08,2.34,3.68,2.61,.9,4.34-.38,4.35-3.28,.02-6.93,.01-13.86,0-20.79,0-2.08,.77-3.75,2.5-4.95,1.78-1.24,3.68-1.55,5.61-.48,1.91,1.06,2.36,2.96,2.37,4.95,.04,6.93,.01,13.86,.02,20.79,0,.5-.13,1.07,.06,1.48,.52,1.15,1.29,2.37,2.63,2.33,1.46-.04,3.21,.27,4.12-1.64,.4-.84-.14-1.44-.07-2.15,.51-5.15-.54-10.27-.23-15.46,.16-2.73,.5-5.65-.11-8.47-.12-.57-.24-1.25,.27-1.78,.8,1.79,1.19,3.67,1.19,5.63,0,7.17,.02,14.35,0,21.52,0,2.47-1.12,4.31-2.92,4.98-3.03,1.14-5.98-1.19-6.01-4.83-.06-7.05-.05-14.1-.07-21.15,0-.5,.05-1.01-.03-1.49-.29-1.63-1.24-2.72-2.87-3.05-1.48-.3-2.67,.26-3.56,1.49-.8,1.11-1.06,2.35-1.07,3.69-.05,6.92-.06,13.85-.19,20.77-.06,3.48-2.8,5.53-5.84,4.59-1.93-.6-3.27-2.64-3.29-5.14-.03-6.49-.03-12.98-.02-19.46,0-.94-.07-1.86-.31-2.77-.53-2-2.21-3.37-4.01-3.24-1.96,.15-3.23,1.51-3.25,3.84-.04,7.05,0,14.1,.04,21.15,0,1.53-.23,2.99-1.23,4.2-1.25,1.51-2.95,1.9-4.73,1.38-1.76-.52-2.69-1.96-2.97-3.73-.15-.92-.13-1.87-.11-2.8,.1-7.48-.34-14.97,.09-22.45,.06-1,.28-1.92,.79-2.78Z"/>
  <path class="cls-17" d="M105.28,205.26c-.07,2.96,1.05,5.67,1.66,8.49,1.36,6.27,4.43,11.81,6.92,17.59,1.79,4.15,4.6,7.73,7.29,11.36,2.42,3.25,5.29,6.1,7.67,9.39,1.23,1.7,3,3.03,4.75,4.3,1.22,.89,2,2.24,3.26,3.18,5.36,3.99,10.81,7.8,16.82,10.82,4.9,2.45,9.92,4.51,15.13,6.13,2.41,.75,4.94,1.1,7.43,1.57,6.08,1.16,12.19,1.37,18.34,1.39,5.3,.02,10.46-1.08,15.69-1.68,2.63-.31,5.05-1.15,7.49-2.07,1.36-.51,1.78-2.01,2.99-2.65,.08,2.37-.88,3.92-3.17,4.89-3.35,1.43-6.94,1.98-10.5,2.52-7.29,1.11-14.61,1.61-21.99,.94-14.78-1.35-28.41-6-40.73-14.24-16.9-11.31-29.34-26.24-36.2-45.56-1.56-4.4-2.75-8.92-3.3-13.57-.11-.94-.38-1.98,.45-2.8Z"/>
  <path class="cls-12" d="M222.89,209.38c-.3-.9,1.05-2.51-1.11-2.63,.08-.75,.64-.69,1.11-.55,.9,.27,.54,1.04,.58,1.74,.6-2.82-.05-5.54-.07-8.26,0-.99-.22-2-.07-2.97,.23-1.45-.38-2.4-1.49-3.16-.77-.53-1.57-1.04-2.42-1.41-.85-.37-1.25-.94-1.33-1.81,.09-1.47,1.03-2.36,2.22-2.98,3.38-1.79,9.19-.02,11.15,3.35-.61,4.35-1.55,8.66-.92,13.11,.27,1.92-.08,3.86-.15,5.78-.09,2.43-1.48,4.69-3.57,5.27-2.1,.59-4.42,1.38-6.74,.95-1.89-.35-3.7-1.08-5.55-1.63-1.46-.43-1.79-2.06-.97-3.61,.39-.73,1.12-1.17,1.52-1.88,2.18-1.34,4.01,.19,5.96,.74,.63,.27,1.25,.34,1.86-.04Z"/>
  <path class="cls-24" d="M171.64,173.84c.15-2.12,1.47-3.2,3.37-3.66,1.7-.41,3.51,.48,4.55,2.1-.36,3.04-.01,6.09,.02,9.13,.08,6.11,.02,12.2-.33,18.29-.08,1.32,.15,2.61,.19,3.91,.08,2.67-1.19,4.01-3.74,4.05-2.37,.04-3.91-1.51-3.91-3.97,0-9.28,0-18.55,0-27.83,0-.68,.14-1.37-.14-2.03Z"/>
  <path class="cls-4" d="M187.37,173.85c.39-2.28,1.61-3.5,3.72-3.72,2.06-.22,3.54,.65,4.41,2.58-.77,.7-.84,1.68-.82,2.59,.18,9.09-.25,18.19,.03,27.28,.02,.62,.15,1.24,.15,1.87,.01,1.93-1,3.07-2.87,3.25-2.48,.23-3.86-.61-4.15-2.69-.35-2.48-.08-4.98-.15-7.47-.03-1,.09-2-.18-2.98-.01-6.22,0-12.44-.01-18.66,0-.68,.13-1.37-.13-2.03Z"/>
  <path class="cls-26" d="M253.66,172.72c.85-1.93,2.1-2.76,4.14-2.6,1.87,.15,3.27,.96,3.66,2.97-.76,4.53-1.09,9.1-.89,13.67,.23,5.16-.1,10.32,.31,15.47,.06,.81-.02,1.62-.11,2.42-.3,2.54-2.17,3.09-4.15,3.14-1.62,.04-2.97-1.77-3-3.69-.12-7.29,.05-14.57,0-21.86-.02-3.18-.06-6.35,.04-9.53Z"/>
  <path class="cls-36" d="M231.57,264.86c2.18,2.89,5,3,7.81,.85,2.4-1.84,4.85-3.69,7.58-5.08,.22-.11,.43-.26,.6-.43,3.47-3.42,7.23-6.57,10.3-10.36,2.03-2.51,4.61-4.64,6.24-7.31,1.81-2.98,4.2-5.66,5.44-8.96,.96-2.56,2.46-4.84,3.64-7.27,1.27-2.6,1.73-5.42,2.86-8.03,1.34-3.11,1.47-6.55,2.55-9.75,.45-1.35,.05-2.96,.79-4.33,1.19,1.32,1.39,2.9,1.07,4.55-5.13,25.97-19.24,45.72-41.47,59.84-.31,.2-.65,.35-.98,.54-1.52,.86-3.11,1.03-4.6,.06-1.52-.99-2.22-2.46-1.84-4.32Z"/>
  <path class="cls-38" d="M105.33,172.72c.75,1.06,.41,2.22,.35,3.37-.11,2.15,.54,2.58,2.45,1.78,.44-.19,.99-.15,1.43-.33,1.24-.5,2.26-.86,2.37-2.77,.09-1.49,.89-3.16,1.33-4.73,1.82-6.53,4.57-12.66,7.76-18.57,2.99-5.53,6.74-10.55,11.24-15.04,2.34-2.33,4.67-4.71,6.88-7.18,1.32-1.47,3.31-2.35,5.02-3.46,3.4-2.18,7.02-4.09,9.43-7.52,.11-.16,.45-.17,.68-.26,.12,2.93-1.74,4.46-3.95,5.88-15.39,9.89-26.5,23.34-33.27,40.35-1.68,4.23-2.82,8.61-3.62,13.09-.44,2.46-2.42,4.05-4.53,3.91-2.23-.15-4.2-1.84-4.3-3.95-.08-1.55,.25-3.09,.73-4.58Z"/>
  <path class="cls-31" d="M176.13,234.33c0-2.2,0-4.06,0-5.93,0-1.26,.2-2.45,1.82-2.51,1.74-.06,1.77,1.27,1.79,2.47,.06,3.68,.06,7.36,.09,11.04,0,.9-.03,1.8-1.01,2.21-1.03,.44-1.85-.08-2.48-.81-2.19-2.52-4.34-5.08-6.72-7.88,0,2.34-.02,4.42,0,6.49,.02,1.25-.33,2.42-1.69,2.47-1.42,.06-2-1.04-2-2.41,0-3.81,0-7.61-.02-11.42,0-.87,.18-1.63,1.04-2.01,.99-.43,1.73,.15,2.3,.79,1.44,1.64,2.79,3.35,4.16,5.04,.7,.86,1.4,1.71,2.69,2.44Z"/>
  <path class="cls-23" d="M237.94,159.24c.77,1.5,.49,3.2,.56,4.73,.2,4.34,.39,8.71-.09,13.07-.13,1.15,.21,2.33,.21,3.5,.02,7.86,.03,15.73,0,23.59,0,1.6,.74,2.55,2.13,3.15,1.38,.6,2.8,.32,3.61-.71,1.14-1.45,1.25-3.39,.95-5.18-.65-3.9-.27-7.82-.34-11.73-.15-8.33-.07-16.66-.05-24.99,0-2.58,.1-5.16,.16-7.75,1.44,.93,1.7,2.43,1.7,3.92,.06,14.53,.07,29.06,.08,43.59,0,.62-.09,1.25-.23,1.85-.54,2.31-2.48,3.93-4.45,3.78-2.2-.18-3.96-1.93-4.28-4.25-.02-.12-.02-.25-.02-.37,.02-15.4,.03-30.8,.05-46.21Z"/>
  <path class="cls-5" d="M160.37,234.04c-.03,4.35-3.72,8.03-8,7.98-4.53-.05-8.55-3.96-8.49-8.26,.06-4.26,3.96-8.03,8.27-8.01,4.33,.03,8.25,3.98,8.22,8.29Z"/>
  <path class="cls-3" d="M220.65,234.61c0-2.46,0-4.5,0-6.54,0-1.08,.25-2.06,1.55-2.15,1.35-.09,1.9,.76,1.91,1.99,.03,3.99,.05,7.98,.04,11.98,0,.74-.11,1.53-1,1.82-.93,.31-1.6-.25-2.13-.83-2.08-2.24-4.09-4.54-6.13-6.81-.16-.18-.32-.35-.85-.92,0,2.38-.03,4.34,0,6.29,.03,1.3-.33,2.26-1.81,2.25-1.41-.01-1.69-.98-1.69-2.17,0-3.81,0-7.61-.02-11.42,0-.86,.1-1.7,.94-2.07,.97-.43,1.66,.23,2.26,.88,2.22,2.44,4.08,5.19,6.94,7.7Z"/>
  <path class="cls-19" d="M230.31,233.83c0-1.87,.02-3.75,0-5.62-.02-1.55,.7-2.29,2.26-2.27,2.25,.03,4.49,0,6.74,0,1.22,0,2.17,.55,2.16,1.81-.01,1.28-1.08,1.49-2.16,1.48-1.5,0-3,.08-4.49-.03-1.24-.1-1.13,.64-1.08,1.4,.04,.72-.37,1.72,1.05,1.63,1.24-.08,2.5-.01,3.74-.03,1.19-.01,2.25,.37,2.22,1.69-.03,1.18-1.02,1.58-2.16,1.54-1.25-.04-2.5,.02-3.74-.03-1.19-.05-1.04,.72-1.07,1.49-.03,.83,0,1.45,1.14,1.39,1.49-.09,3-.05,4.49,0,1.14,.03,2.26,.39,2.2,1.74-.06,1.27-1.08,1.68-2.29,1.66-2.31-.02-4.62,0-6.93,.01-1.39,.01-2.06-.65-2.05-2.05,.02-1.94,0-3.87,0-5.81-.02,0-.03,0-.05,0Z"/>
  <path class="cls-30" d="M253.66,172.72c.79,2.3,.22,4.66,.28,6.99,.14,5.54,.23,11.09-.03,16.62-.13,2.61,.15,5.19,.08,7.78-.05,1.73,1.07,2.71,2.41,3.21,1.09,.41,2.58-.26,3.16-.92,1.17-1.34,1.01-3.3,.74-5.01-.5-3.07,.1-6.13-.2-9.19-.22-2.32-.07-4.68-.11-7.02-.03-2.03,.19-4.05,.03-6.09-.16-2.12,1.03-3.98,1.45-5.99,.51,1.03,.49,2.13,.49,3.25,.03,9.04,.09,18.08,.11,27.12,0,.93-.05,1.87-.19,2.79-.34,2.27-2.28,3.95-4.35,3.85-2.02-.09-4.13-1.94-4.26-4.04-.16-2.61-.1-5.23-.1-7.85,0-7.67,.02-15.34,.06-23,0-.84-.27-1.76,.43-2.49Z"/>
  <path class="cls-32" d="M187.72,194.8c.73,1.48,.25,3.05,.33,4.57,.1,1.85-.04,3.71,.23,5.56,.28,1.91,1.44,2.57,4.13,2.24,1.58-.2,2.15-1.35,1.97-2.67-.44-3.27-.27-6.55-.3-9.82-.04-4.51-.28-9.05,.09-13.53,.21-2.59-.63-5.16,.19-7.72,.22-.69,.26-1.26,1.14-.72,.53,1.14,.69,2.34,.69,3.58-.01,9.41,0,18.83,0,28.24,0,1.72-.22,3.39-1.71,4.54-2.83,2.19-6.49,.61-7.1-3.04,.25-3.08,.09-6.16,.15-9.24,.01-.66-.2-1.36,.2-1.99Z"/>
  <path class="cls-13" d="M215.07,208.68c.19,.86-.69,1.04-1.02,1.57-1.11,1.79-.53,3.25,1.47,3.69,1.02,.23,2.04,.48,3.02,.93,1.46,.68,2.99,.78,4.54,.17,.99-.39,2.04-.28,3.04-.39,1.48-.17,2.5-1.58,3.16-2.94,1.11-2.3,.99-4.89,.68-7.25-.55-4.26,.44-8.35,.62-12.52,.02-.46,.08-1.19,.87-1.25,1.01,3.27,.4,6.64,.51,9.96,.09,2.68,.05,5.36,0,8.04-.08,5.11-2.56,8.25-7.54,9.48-3.3,.81-6.45,.29-9.31-1.54-3.14-2.01-3.13-5.95-.05-7.95Z"/>
  <path class="cls-11" d="M171.64,173.84c.56,.58,.32,1.3,.32,1.96,.02,6.42,0,12.84,0,19.26,0,2.65,.19,5.32-.05,7.95-.26,2.97,2.72,5.15,5.67,3.76,1.65-.78,1.52-2.54,1.3-3.85-.4-2.36-.33-4.72-.1-7.01,.44-4.3,.31-8.57,.15-12.85-.11-3,.54-6.02-.21-9.01-.17-.67,.19-1.34,.82-1.77,.74,.73,.76,1.69,.76,2.61,.06,10.04,.14,20.09,.09,30.13-.02,3.68-2.81,5.8-5.87,4.77-1.75-.59-2.96-2.19-2.96-4.33-.01-10.54,.03-21.08,.06-31.62Z"/>
  <path class="cls-6" d="M218.08,190.32c.67,1.3,2.07,1.59,3.19,2.22,2.18,1.22,2.57,2,2.43,4.53-.12,2.16,.29,4.33,.41,6.5,.1,1.8,.15,3.48-.69,5.1q-.22-2.24-1.64-1.92c-9.41,.9-18.08-6.01-19.54-15.42-.47-3.03-.33-5.95,.48-8.87,.57,.67,.29,1.4,.18,2.12-.55,3.46-.26,6.67,1.73,9.78,1.75,2.74,3.48,5.34,6.15,7.3,2.71,1.99,5.84,2.66,9,3.2,1.74,.3,3.09-1.09,3.11-2.86,.02-1.55-.02-3.11-.04-4.66,.31-.94-.04-1.32-.99-1.66-2.7-.97-3.91-2.81-3.79-5.36Z"/>
  <path class="cls-14" d="M185.44,233.78c0-1.81,.02-3.62,0-5.43-.02-1.31,.19-2.48,1.82-2.45,1.57,.03,1.86,1.22,1.87,2.49,.02,2.74,.11,5.49-.02,8.23-.07,1.49,.45,1.81,1.78,1.69,1.3-.11,2.62-.07,3.92-.01,1.03,.05,1.89,.52,1.82,1.68-.07,1.06-.83,1.65-1.89,1.67-2.49,.04-4.99,.04-7.48,.04-1.26,0-1.75-.76-1.76-1.93,0-1.99,0-3.99,0-5.98-.01,0-.03,0-.04,0Z"/>
  <path class="cls-10" d="M171.2,162.25c-.79-2.79,.65-5.42,3.4-6.21,2.53-.73,5.12,.83,5.95,3.57,.15,1.97-.21,3.71-2.16,4.7-1.88,.95-3.7,.83-5.43-.38-.61-.43-1.16-.94-1.33-1.72-.3-1.35-.23,.6-.43,.04Z"/>
  <path class="cls-33" d="M210.93,189.91c-.91,.25-1.42-.61-1.33-1.03,.57-2.8-.26-5.95,1.76-8.4,1.94-2.35,3.98-4.89,7.38-4.71,2.56,.14,5.3,.04,7.44,2.15,1.09,1.08,3.32,.39,4.37-.93,.3-.38,.33-1.37,1.29-.92-.36,3.22-3.05,4.92-6.11,3.87-1.91-.66-3.64-1.84-5.79-1.81-5.17,.08-9.29,4.42-9.13,9.73,.02,.68,.09,1.36,.13,2.04Z"/>
  <path class="cls-15" d="M201.29,233.74c0-1.87-.02-3.74,0-5.6,.02-1.14,.31-2.2,1.7-2.22,1.43-.02,1.9,1,1.91,2.24,.03,3.86,.01,7.72,.03,11.58,0,1.26-.61,2.15-1.83,2.1-1.11-.05-1.9-.78-1.87-2.12,.05-1.99,.01-3.98,.01-5.98h.04Z"/>
  <path class="cls-7" d="M261.47,158.48c1.1,2.27,.73,4.62-.93,6.06-1.63,1.4-4.35,1.57-6.09,.39-1.92-1.3-2.51-3.57-1.6-6.09,.49-.19,.81,.18,1.2,.35,2.07,.88,4.09,.97,6.06-.28,.41-.26,.8-.62,1.36-.42Z"/>
  <path class="cls-40" d="M261.47,158.48c-3.04,2.39-6.27,2.52-8.62,.36,.61-2.03,2.08-2.93,4.1-3.04,2.08-.11,3.7,.63,4.52,2.68Z"/>
  <path class="cls-35" d="M171.2,162.25c.03-.49,.06-.98,.11-1.91,.58,1.84,1.29,3.07,2.8,3.73,2.84,1.25,5.76-.36,6.09-3.46,.04-.37,0-.75,.35-1,.89,2.61-.4,5.19-3.01,6.06-2.87,.95-5.45-.44-6.34-3.42Z"/>
  <path class="cls-2" d="M187.72,194.8c0,3.16,0,6.31-.04,9.47,0,.6,.2,1.25-.31,1.76-.53-1.9-.09-3.83-.09-5.74,0-8.81,.06-17.63,.09-26.44,.56,.58,.31,1.3,.31,1.95,.03,6.33,.02,12.67,.03,19Z"/>
  <path class="cls-29" d="M107.92,242.36c-1.25-.44-2.05-1.14-1.51-2.61,.5,.87,1.01,1.74,1.51,2.61Z"/>
  <path class="cls-12" d="M278.31,240.87c.07,1.43-.42,2.5-1.86,2.99,.62-1,1.24-1.99,1.86-2.99Z"/>
  <path class="cls-12" d="M267.72,255.81c-.18,1.5-1.24,2.19-2.48,2.73,.83-.91,1.65-1.82,2.48-2.73Z"/>
  <path class="cls-12" d="M237.48,280.2c-.4,1.05-.95,1.81-2.22,1.12,.69-.48,1.4-.92,2.22-1.12Z"/>
  <path class="cls-12" d="M273.77,247.97c.16,1.13-.26,1.7-1.42,1.92,.41-.69,.77-1.41,1.42-1.92Z"/>
  <path class="cls-12" d="M261.76,262.19c-.15,1.31-.92,2.01-2.19,2.2,.73-.73,1.46-1.47,2.19-2.2Z"/>
  <path class="cls-28" d="M278.41,167.07c-1.4-.66-1.47-1.71-.87-2.97,.29,.99,.58,1.98,.87,2.97Z"/>
  <path class="cls-12" d="M271.57,250.98c.38,1.3-.48,1.65-1.46,1.9,.49-.63,.97-1.27,1.46-1.9Z"/>
  <path class="cls-12" d="M257.74,265.98c-.23,1.03-.71,1.8-1.91,1.79,.64-.6,1.28-1.19,1.91-1.79Z"/>
  <path class="cls-12" d="M240.87,278.33c-.34,.86-.76,1.59-1.89,1.08,.63-.36,1.26-.72,1.89-1.08Z"/>
  <path class="cls-12" d="M245.73,275.33c-.03,.74-.14,1.38-1.11,.75,.27-.4,.66-.61,1.11-.75Z"/>
  <path class="cls-12" d="M254.76,268.61c.16,.72-.05,1.01-.79,.69,.26-.23,.53-.46,.79-.69Z"/>
  <path class="cls-12" d="M251.7,271.04c-.17,.54-.27,1.18-1.1,.86l1.1-.86Z"/>
  <path class="cls-12" d="M250.2,272.17c-.18,.54-.27,1.18-1.11,.85,.37-.28,.74-.57,1.11-.85Z"/>
  <path class="cls-12" d="M268.96,254.36c.26,.72-.04,.93-.72,.78,.24-.26,.48-.52,.72-.78Z"/>
  <path class="cls-6" d="M222.89,209.38c-.61,.61-1.23,.56-1.86,.04,.62-.01,1.24-.03,1.86-.04Z"/>
  <path class="cls-12" d="M252.91,270.11c.09,.67-.06,1.04-.82,.66,.19-.32,.44-.58,.82-.66Z"/>
  <path class="cls-41" d="M156.77,234.13c-.02,2.32-2.29,4.53-4.61,4.48-2.46-.05-4.58-2.24-4.59-4.72,0-2.57,2.02-4.63,4.56-4.63,2.42,0,4.65,2.34,4.63,4.87Z"/>
</svg>